<?xml version="1.0" encoding="UTF-8"?>
<!DOCTYPE svg PUBLIC "-//W3C//DTD SVG 1.1//EN" "http://www.w3.org/Graphics/SVG/1.1/DTD/svg11.dtd">
<svg xmlns="http://www.w3.org/2000/svg" version="1.1" width="512px" height="512px" style="shape-rendering:geometricPrecision; text-rendering:geometricPrecision; image-rendering:optimizeQuality; fill-rule:evenodd; clip-rule:evenodd" xmlns:xlink="http://www.w3.org/1999/xlink">
<g><path style="opacity:0.989" fill="#60276d" d="M 135.5,2.5 C 215.501,2.33334 295.501,2.5 375.5,3C 379.837,4.33896 383.337,6.83896 386,10.5C 387.667,20.4923 389.333,30.4923 391,40.5C 395.735,58.2348 406.901,69.7348 424.5,75C 429.518,78.7195 431.851,83.7195 431.5,90C 427.506,145.149 411.172,196.315 382.5,243.5C 383.48,244.981 384.647,246.315 386,247.5C 386.667,273.833 386.667,300.167 386,326.5C 384.833,327.667 383.667,328.833 382.5,330C 376.403,331.185 370.403,332.685 364.5,334.5C 341.594,380.569 305.928,412.403 257.5,430C 251.913,429.92 246.58,428.587 241.5,426C 199.196,406.529 167.53,376.029 146.5,334.5C 140.597,332.685 134.597,331.185 128.5,330C 127.333,328.833 126.167,327.667 125,326.5C 124.333,300.167 124.333,273.833 125,247.5C 126.214,245.951 127.714,244.785 129.5,244C 100.027,196.912 83.3601,145.578 79.5,90C 79.1491,83.7195 81.4825,78.7195 86.5,75C 104.072,69.7609 115.239,58.2609 120,40.5C 121.667,30.4923 123.333,20.4923 125,10.5C 127.831,6.82094 131.331,4.15427 135.5,2.5 Z"/></g>
<g><path style="opacity:1" fill="#fdecec" d="M 152.5,19.5 C 153.388,40.5382 146.388,58.3715 131.5,73C 126.466,76.6916 120.966,79.5249 115,81.5C 114.235,81.4301 113.735,81.0967 113.5,80.5C 124.489,71.2153 131.989,59.5486 136,45.5C 137.987,36.9411 139.153,28.2745 139.5,19.5C 143.833,19.5 148.167,19.5 152.5,19.5 Z"/></g>
<g><path style="opacity:1" fill="#fde0e1" d="M 152.5,19.5 C 221.167,19.5 289.833,19.5 358.5,19.5C 357.962,40.4015 364.962,58.2349 379.5,73C 384.942,77.0544 390.942,80.0544 397.5,82C 400.933,84.4253 402.267,87.7586 401.5,92C 398.137,134.568 386.804,174.734 367.5,212.5C 363.825,207.826 360.158,203.16 356.5,198.5C 370.155,170.369 379.488,140.869 384.5,110C 384.458,108.033 383.958,106.199 383,104.5C 372.573,97.4078 364.24,88.4078 358,77.5C 353.426,68.3584 349.426,59.025 346,49.5C 345.25,48.8742 344.416,48.3742 343.5,48C 284.833,47.3333 226.167,47.3333 167.5,48C 166.069,48.4652 164.903,49.2986 164,50.5C 158.303,72.8351 146.303,90.8351 128,104.5C 127.042,106.199 126.542,108.033 126.5,110C 131.36,141.245 141.026,170.912 155.5,199C 150.56,203.432 146.227,208.265 142.5,213.5C 131.193,188.748 122.36,163.082 116,136.5C 112.243,120.017 110.243,103.351 110,86.5C 110.465,85.0692 111.299,83.9025 112.5,83C 111.906,82.5357 111.239,82.369 110.5,82.5C 111.29,81.5987 112.29,80.9321 113.5,80.5C 113.735,81.0967 114.235,81.4301 115,81.5C 120.966,79.5249 126.466,76.6916 131.5,73C 146.388,58.3715 153.388,40.5382 152.5,19.5 Z"/></g>
<g><path style="opacity:1" fill="#f8d235" d="M 176.5,63.5 C 229.168,63.3333 281.834,63.5 334.5,64C 340.959,83.0815 351.793,99.2481 367,112.5C 363.397,140.141 354.897,166.141 341.5,190.5C 338.344,188.837 335.011,187.67 331.5,187C 323.158,186.047 314.824,185.047 306.5,184C 294.439,180.551 285.273,173.384 279,162.5C 273.333,150.5 267.667,138.5 262,126.5C 257.667,122.5 253.333,122.5 249,126.5C 243.333,138.5 237.667,150.5 232,162.5C 220.462,179.517 204.296,187.35 183.5,186C 178.401,186.75 173.567,188.25 169,190.5C 156.021,165.899 147.688,139.899 144,112.5C 159.349,99.1282 170.182,82.7949 176.5,63.5 Z"/></g>
<g><path style="opacity:1" fill="#fdedec" d="M 110.5,82.5 C 111.239,82.369 111.906,82.5357 112.5,83C 111.299,83.9025 110.465,85.0692 110,86.5C 110.243,103.351 112.243,120.017 116,136.5C 122.36,163.082 131.193,188.748 142.5,213.5C 140.68,217.14 138.847,220.807 137,224.5C 112.557,182.348 99.3902,137.015 97.5,88.5C 101.979,86.7595 106.313,84.7595 110.5,82.5 Z"/></g>
<g><path style="opacity:1" fill="#fdcdce" d="M 358.5,19.5 C 362.833,19.5 367.167,19.5 371.5,19.5C 371.959,36.6714 376.459,52.6714 385,67.5C 392.488,77.8256 402.322,84.8256 414.5,88.5C 411.609,137.005 398.109,182.338 374,224.5C 372.075,220.313 369.908,216.313 367.5,212.5C 386.804,174.734 398.137,134.568 401.5,92C 402.267,87.7586 400.933,84.4253 397.5,82C 390.942,80.0544 384.942,77.0544 379.5,73C 364.962,58.2349 357.962,40.4015 358.5,19.5 Z"/></g>
<g><path style="opacity:1" fill="#632a6b" d="M 240.5,85.5 C 244.911,85.021 249.078,85.6876 253,87.5C 255.897,97.6084 252.064,101.775 241.5,100C 235.205,95.6625 234.872,90.8292 240.5,85.5 Z"/></g>
<g><path style="opacity:1" fill="#632a6b" d="M 274.5,84.5 C 288.504,84.3334 302.504,84.5001 316.5,85C 321.924,87.017 323.758,90.8503 322,96.5C 320.833,97.6667 319.667,98.8333 318.5,100C 303.5,100.667 288.5,100.667 273.5,100C 270.484,98.4714 269.151,95.9714 269.5,92.5C 269.546,88.7935 271.213,86.1268 274.5,84.5 Z"/></g>
<g><path style="opacity:1" fill="#a1a0a3" d="M 260.5,161.5 C 254.68,174.819 245.013,184.319 231.5,190C 230.251,190.74 229.251,190.573 228.5,189.5C 233.791,186.043 238.291,181.71 242,176.5C 246.77,167.959 251.27,159.292 255.5,150.5C 257.436,154.039 259.102,157.705 260.5,161.5 Z"/></g>
<g><path style="opacity:1" fill="#86808d" d="M 260.5,161.5 C 273.945,189.91 296.611,203.577 328.5,202.5C 338.973,211.098 345.639,222.098 348.5,235.5C 348.457,236.416 348.124,237.083 347.5,237.5C 316.334,231.9 285.167,226.234 254,220.5C 223.092,226.177 192.259,232.177 161.5,238.5C 163.752,224.421 170.418,212.921 181.5,204C 181.272,203.601 180.938,203.435 180.5,203.5C 193.005,202.675 205.338,200.175 217.5,196C 221.524,194.326 225.191,192.159 228.5,189.5C 229.251,190.573 230.251,190.74 231.5,190C 245.013,184.319 254.68,174.819 260.5,161.5 Z"/></g>
<g><path style="opacity:1" fill="#a2a0a3" d="M 180.5,203.5 C 180.938,203.435 181.272,203.601 181.5,204C 170.418,212.921 163.752,224.421 161.5,238.5C 157.864,238.594 154.364,239.261 151,240.5C 152.717,221.75 162.55,209.416 180.5,203.5 Z"/></g>
<g><path style="opacity:1" fill="#786c83" d="M 328.5,202.5 C 347.51,208.174 358.176,220.841 360.5,240.5C 355.965,239.863 351.632,238.863 347.5,237.5C 348.124,237.083 348.457,236.416 348.5,235.5C 345.639,222.098 338.973,211.098 328.5,202.5 Z"/></g>
<g><path style="opacity:1" fill="#86808d" d="M 250.5,236.5 C 253.518,236.335 256.518,236.502 259.5,237C 296.418,244.617 333.418,251.784 370.5,258.5C 370.826,277.743 370.493,296.91 369.5,316C 331.335,323.167 293.168,330.333 255,337.5C 216.967,330.993 179.133,323.66 141.5,315.5C 140.5,296.512 140.167,277.512 140.5,258.5C 177.399,251.77 214.066,244.436 250.5,236.5 Z"/></g>
<g><path style="opacity:1" fill="#5f266d" d="M 252.5,248.5 C 256.987,248.161 260.487,249.827 263,253.5C 263.667,276.167 263.667,298.833 263,321.5C 260.565,326.224 256.731,327.724 251.5,326C 249.951,324.786 248.785,323.286 248,321.5C 247.333,298.833 247.333,276.167 248,253.5C 249.366,251.638 250.866,249.972 252.5,248.5 Z"/></g>
<g><path style="opacity:1" fill="#5f276d" d="M 223.5,254.5 C 227.803,253.796 231.303,255.13 234,258.5C 234.667,277.833 234.667,297.167 234,316.5C 228.579,323.433 223.579,323.1 219,315.5C 218.333,296.833 218.333,278.167 219,259.5C 220.025,257.313 221.525,255.646 223.5,254.5 Z"/></g>
<g><path style="opacity:1" fill="#5f276d" d="M 280.5,254.5 C 285.635,253.426 289.468,255.093 292,259.5C 292.667,278.167 292.667,296.833 292,315.5C 287.33,322.977 282.33,323.311 277,316.5C 276.333,297.167 276.333,277.833 277,258.5C 278.376,257.295 279.542,255.962 280.5,254.5 Z"/></g>
<g><path style="opacity:1" fill="#60286d" d="M 195.5,261.5 C 199.713,261.22 202.88,262.887 205,266.5C 205.667,280.833 205.667,295.167 205,309.5C 201.58,313.753 197.413,314.587 192.5,312C 191.54,310.581 190.707,309.081 190,307.5C 189.333,294.167 189.333,280.833 190,267.5C 191.36,264.977 193.193,262.977 195.5,261.5 Z"/></g>
<g><path style="opacity:1" fill="#60286d" d="M 310.5,261.5 C 315.421,261.043 318.921,263.043 321,267.5C 321.667,280.833 321.667,294.167 321,307.5C 318.983,312.924 315.15,314.758 309.5,313C 308.333,311.833 307.167,310.667 306,309.5C 305.333,295.167 305.333,280.833 306,266.5C 307.025,264.313 308.525,262.646 310.5,261.5 Z"/></g>
<g><path style="opacity:1" fill="#60286e" d="M 166.5,266.5 C 171.421,266.043 174.921,268.043 177,272.5C 177.667,282.5 177.667,292.5 177,302.5C 174.163,308.542 169.663,310.042 163.5,307C 162.874,306.25 162.374,305.416 162,304.5C 161.333,293.167 161.333,281.833 162,270.5C 163.397,268.93 164.897,267.596 166.5,266.5 Z"/></g>
<g><path style="opacity:1" fill="#60286e" d="M 339.5,266.5 C 343.426,266.047 346.592,267.38 349,270.5C 349.667,281.833 349.667,293.167 349,304.5C 347.607,307.366 345.274,308.699 342,308.5C 337.69,308.68 335.024,306.68 334,302.5C 333.333,292.5 333.333,282.5 334,272.5C 335.36,269.977 337.193,267.977 339.5,266.5 Z"/></g>
<g><path style="opacity:0.983" fill="#5f266d" d="M 20.5,308.5 C 41.5016,311.778 62.5016,315.278 83.5,319C 108.021,347.353 132.354,375.853 156.5,404.5C 160.652,400.849 164.652,397.016 168.5,393C 171.167,392.333 173.833,392.333 176.5,393C 185,401.5 193.5,410 202,418.5C 204,421.833 204,425.167 202,428.5C 196.652,433.681 191.485,439.015 186.5,444.5C 194.486,452.986 202.652,461.319 211,469.5C 212.422,472.03 212.755,474.697 212,477.5C 202.864,487.637 193.364,497.47 183.5,507C 180.167,509 176.833,509 173.5,507C 165.319,498.652 156.986,490.486 148.5,482.5C 143.015,487.485 137.681,492.652 132.5,498C 129.97,499.422 127.303,499.755 124.5,499C 115.03,490.531 105.863,481.697 97,472.5C 96.3333,469.833 96.3333,467.167 97,464.5C 100.667,460.833 104.333,457.167 108,453.5C 108.667,452.833 108.667,452.167 108,451.5C 79.3732,427.875 51.0398,403.875 23,379.5C 19.3913,358.848 15.8913,338.181 12.5,317.5C 13.1417,312.533 15.8084,309.533 20.5,308.5 Z"/></g>
<g><path style="opacity:0.986" fill="#5f266c" d="M 489.5,308.5 C 494.81,309.143 497.81,312.143 498.5,317.5C 495.109,338.181 491.609,358.848 488,379.5C 459.96,403.875 431.627,427.875 403,451.5C 402.333,452.167 402.333,452.833 403,453.5C 406.667,457.167 410.333,460.833 414,464.5C 414.667,467.167 414.667,469.833 414,472.5C 405.137,481.697 395.97,490.531 386.5,499C 383.697,499.755 381.03,499.422 378.5,498C 373.319,492.652 367.985,487.485 362.5,482.5C 354.014,490.486 345.681,498.652 337.5,507C 334.167,509 330.833,509 327.5,507C 317.636,497.47 308.136,487.637 299,477.5C 298.245,474.697 298.578,472.03 300,469.5C 308.348,461.319 316.514,452.986 324.5,444.5C 319.515,439.015 314.348,433.681 309,428.5C 307,425.167 307,421.833 309,418.5C 317.5,410 326,401.5 334.5,393C 337.167,392.333 339.833,392.333 342.5,393C 346.348,397.016 350.348,400.849 354.5,404.5C 378.646,375.853 402.979,347.353 427.5,319C 448.284,315.37 468.95,311.87 489.5,308.5 Z"/></g>
<g><path style="opacity:1" fill="#a3a2a4" d="M 44.5,329.5 C 45.3613,338.278 46.8613,346.945 49,355.5C 74.8673,379.702 101.034,403.536 127.5,427C 129.141,428.129 130.141,429.629 130.5,431.5C 127.814,435.373 124.481,438.206 120.5,440C 93.0205,417.355 65.6872,394.522 38.5,371.5C 35.9076,356.872 33.5742,342.205 31.5,327.5C 35.9275,327.799 40.2609,328.465 44.5,329.5 Z"/></g>
<g><path style="opacity:1" fill="#786d83" d="M 379.5,430.5 C 407.112,406.225 434.445,381.559 461.5,356.5C 464.698,347.565 466.031,338.565 465.5,329.5C 469.943,328.199 474.609,327.532 479.5,327.5C 477.426,342.204 475.093,356.87 472.5,371.5C 445.313,394.522 417.979,417.355 390.5,440C 386.183,437.869 382.516,434.702 379.5,430.5 Z"/></g>
<g><path style="opacity:1" fill="#86818d" d="M 44.5,329.5 C 54.8948,330.758 65.2282,332.425 75.5,334.5C 98.1456,361.647 120.979,388.647 144,415.5C 144.667,416.5 144.667,417.5 144,418.5C 139.631,423.037 135.131,427.37 130.5,431.5C 130.141,429.629 129.141,428.129 127.5,427C 101.034,403.536 74.8673,379.702 49,355.5C 46.8613,346.945 45.3613,338.278 44.5,329.5 Z"/></g>
<g><path style="opacity:1" fill="#86818d" d="M 465.5,329.5 C 466.031,338.565 464.698,347.565 461.5,356.5C 434.445,381.559 407.112,406.225 379.5,430.5C 375.202,426.704 371.036,422.704 367,418.5C 366.333,417.5 366.333,416.5 367,415.5C 388,390.5 409,365.5 430,340.5C 432.406,337.753 435.073,335.42 438,333.5C 447.17,332.11 456.337,330.777 465.5,329.5 Z"/></g>
<g><path style="opacity:1" fill="#a19fa3" d="M 178.5,339.5 C 189.96,360.805 205.294,378.972 224.5,394C 231.887,399.685 239.554,404.852 247.5,409.5C 213.155,393.989 186.155,370.156 166.5,338C 170.576,337.892 174.576,338.392 178.5,339.5 Z"/></g>
<g><path style="opacity:1" fill="#786c83" d="M 267.5,407.5 C 294.548,391.117 315.882,369.117 331.5,341.5C 331.043,340.702 330.376,340.369 329.5,340.5C 334.256,339.242 339.089,337.909 344,336.5C 326.79,368.869 301.29,392.536 267.5,407.5 Z"/></g>
<g><path style="opacity:1" fill="#86818d" d="M 178.5,339.5 C 203.859,344.872 229.359,349.538 255,353.5C 279.85,349.219 304.684,344.886 329.5,340.5C 330.376,340.369 331.043,340.702 331.5,341.5C 315.882,369.117 294.548,391.117 267.5,407.5C 263.629,409.85 259.462,411.517 255,412.5C 252.133,412.161 249.633,411.161 247.5,409.5C 239.554,404.852 231.887,399.685 224.5,394C 205.294,378.972 189.96,360.805 178.5,339.5 Z"/></g>
<g><path style="opacity:1" fill="#857f8c" d="M 131.5,475.5 C 128.167,471.5 124.5,467.833 120.5,464.5C 137.298,447.201 154.298,430.035 171.5,413C 172.167,412.333 172.833,412.333 173.5,413C 176.667,416.167 179.833,419.333 183,422.5C 183.667,423.167 183.667,423.833 183,424.5C 165.965,441.702 148.799,458.702 131.5,475.5 Z"/></g>
<g><path style="opacity:1" fill="#847d8c" d="M 337.5,412.5 C 356.748,430.246 375.582,448.58 394,467.5C 394.667,468.167 394.667,468.833 394,469.5C 390.833,472.667 387.667,475.833 384.5,479C 383.833,479.667 383.167,479.667 382.5,479C 364.36,460.86 346.194,442.694 328,424.5C 327.333,423.833 327.333,423.167 328,422.5C 331.371,419.297 334.538,415.964 337.5,412.5 Z"/></g>
<g><path style="opacity:1" fill="#f3cc39" d="M 183.5,483.5 C 176.556,478.225 170.223,472.225 164.5,465.5C 166.962,462.536 169.629,459.703 172.5,457C 173.5,456.333 174.5,456.333 175.5,457C 181.348,462.681 187.015,468.515 192.5,474.5C 189.812,477.854 186.812,480.854 183.5,483.5 Z"/></g>
<g><path style="opacity:1" fill="#f0c631" d="M 335.5,456.5 C 336.552,456.351 337.552,456.517 338.5,457C 342.833,461.333 347.167,465.667 351.5,470C 345.319,476.348 338.986,482.515 332.5,488.5C 327.5,484.167 322.833,479.5 318.5,474.5C 324.188,468.48 329.855,462.48 335.5,456.5 Z"/></g>
<g><path style="opacity:1" fill="#a09da1" d="M 120.5,464.5 C 124.5,467.833 128.167,471.5 131.5,475.5C 130.438,477.757 128.772,478.923 126.5,479C 122.984,475.651 119.651,472.151 116.5,468.5C 117.521,466.812 118.855,465.479 120.5,464.5 Z"/></g>
<g><path style="opacity:1" fill="#eed47b" d="M 164.5,465.5 C 170.223,472.225 176.556,478.225 183.5,483.5C 182.121,486.073 180.121,487.573 177.5,488C 172,482.5 166.5,477 161,471.5C 160.613,468.696 161.779,466.696 164.5,465.5 Z"/></g>
</svg>
